<svg width="36" height="36" viewBox="0 0 36 36" fill="none" xmlns="http://www.w3.org/2000/svg">
<path fill-rule="evenodd" clip-rule="evenodd" d="M28.0607 7.93934C28.6464 8.52513 28.6464 9.47487 28.0607 10.0607L10.0607 28.0607C9.47487 28.6464 8.52513 28.6464 7.93934 28.0607C7.35355 27.4749 7.35355 26.5251 7.93934 25.9393L25.9393 7.93934C26.5251 7.35355 27.4749 7.35355 28.0607 7.93934Z" fill="white"/>
<path fill-rule="evenodd" clip-rule="evenodd" d="M7.93934 7.93934C8.52513 7.35355 9.47487 7.35355 10.0607 7.93934L28.0607 25.9393C28.6464 26.5251 28.6464 27.4749 28.0607 28.0607C27.4749 28.6464 26.5251 28.6464 25.9393 28.0607L7.93934 10.0607C7.35355 9.47487 7.35355 8.52513 7.93934 7.93934Z" fill="#FEFFFF"/>
</svg>
