<svg width="81" height="81" viewBox="0 0 81 81" fill="none" xmlns="http://www.w3.org/2000/svg">
<path fill-rule="evenodd" clip-rule="evenodd" d="M40.5 77.625C19.9964 77.625 3.375 61.0036 3.375 40.5C3.375 19.9964 19.9964 3.375 40.5 3.375C61.0036 3.375 77.625 19.9964 77.625 40.5C77.625 61.0036 61.0036 77.625 40.5 77.625ZM40.5 70.875C57.2757 70.875 70.875 57.2757 70.875 40.5C70.875 23.7243 57.2757 10.125 40.5 10.125C23.7243 10.125 10.125 23.7243 10.125 40.5C10.125 57.2757 23.7243 70.875 40.5 70.875ZM57.0731 52.1383L51.552 48.2552C49.0364 51.8319 44.9533 54 40.5 54C36.0467 54 31.9636 51.8319 29.448 48.2552L23.9269 52.1383C27.6934 57.4937 33.8258 60.75 40.5 60.75C47.1742 60.75 53.3066 57.4937 57.0731 52.1383ZM47.25 37.125V30.375H54V37.125H47.25ZM27 30.375V37.125H33.75V30.375H27Z" fill="#D9E2EC"/>
</svg>
