<svg xmlns="http://www.w3.org/2000/svg">
    <defs>
        <symbol id="sound-loud" viewBox="-40.96 -40.96 593.92 593.92">
            <path stroke-width="1" transform="translate(42.666667, 85.333333)"
                d="M361.299413,341.610667 L328.014293,314.98176 C402.206933,233.906133 402.206933,109.96608 328.013013,28.8906667 L361.298133,2.26304 C447.910187,98.97536 447.908907,244.898347 361.299413,341.610667 Z M276.912853,69.77216 L243.588693,96.4309333 C283.38432,138.998613 283.38304,204.87488 243.589973,247.44256 L276.914133,274.101333 C329.118507,215.880107 329.118507,127.992107 276.912853,69.77216 Z M191.749973,1.42108547e-14 L80.8957867,87.2292267 L7.10542736e-15,87.2292267 L7.10542736e-15,257.895893 L81.0208,257.895893 L191.749973,343.35424 L191.749973,1.42108547e-14 L191.749973,1.42108547e-14 Z M42.6666667,129.895893 L95.6874667,129.895893 L149.083307,87.8749867 L149.083307,256.520747 L95.5624533,215.229227 L42.6666667,215.229227 L42.6666667,129.895893 Z">
            </path>
        </symbol>
        <symbol id="sound-off" viewBox="-40.96 -40.96 593.92 593.92">
            <path stroke-width="1" transform="translate(42.666667, 59.581722)"
                d="M47.0849493,-1.42108547e-14 L409.751616,362.666662 L379.581717,392.836561 L191.749,205.003 L191.749973,369.105851 L81.0208,283.647505 L7.10542736e-15,283.647505 L7.10542736e-15,112.980838 L80.8957867,112.980838 L91.433,104.688 L16.9150553,30.169894 L47.0849493,-1.42108547e-14 Z M361.298133,28.0146513 C429.03793,103.653926 443.79725,209.394854 405.578543,298.152074 L372.628731,265.200172 C396.498116,194.196781 381.626371,113.22828 328.013013,54.642278 L361.298133,28.0146513 Z M121.824,135.078 L95.6874667,155.647505 L42.6666667,155.647505 L42.6666667,240.980838 L95.5624533,240.980838 L149.083307,282.272358 L149.083,162.337 L121.824,135.078 Z M276.912853,95.5237713 C305.539112,127.447886 318.468552,168.292377 315.701384,208.274722 L266.463468,159.037386 C261.494642,145.732631 253.869746,133.179747 243.588693,122.182545 L243.588693,122.182545 Z M191.749973,25.7516113 L191.749,84.325 L158.969,51.545 L191.749973,25.7516113 Z">
            </path>
        </symbol>
        <symbol id="pause" viewBox="-3.6 -3.6 31.20 31.20">
            <path d="M15,22V2h5v20H15z M9,22V2H4v20H9z"></path>
        </symbol>
        <symbol id="fullscreen" viewBox="-3.36 -3.36 30.72 30.72">
            <path d="M21 3v6h-2V6.41l-3.29 3.3-1.42-1.42L17.59 5H15V3zM3 3v6h2V6.41l3.29 3.3 1.42-1.42L6.41 5H9V3zm18 18v-6h-2v2.59l-3.29-3.29-1.41 1.41L17.59 19H15v2zM9 21v-2H6.41l3.29-3.29-1.41-1.42L5 17.59V15H3v6z"></path>
        </symbol>
        <symbol id="fullscreen-exit" viewBox="-2.88 -2.88 29.76 29.76">
            <path d="M14 10V4h2v2.59l3.29-3.29 1.41 1.41L17.41 8H20v2zM4 10V8h2.59l-3.3-3.29 1.42-1.42L8 6.59V4h2v6zm16 4v2h-2.59l3.29 3.29-1.41 1.41L16 17.41V20h-2v-6zm-10 0v6H8v-2.59l-3.29 3.3-1.42-1.42L6.59 16H4v-2z"></path>
        </symbol>
        <symbol id="close" viewBox="-6.72 -6.72 37.44 37.44">
            <path d="m24 2.4-2.4-2.4-9.6 9.6-9.6-9.6-2.4 2.4 9.6 9.6-9.6 9.6 2.4 2.4 9.6-9.6 9.6 9.6 2.4-2.4-9.6-9.6z"></path>
        </symbol>
        <symbol id="play" viewBox="0 0 24 24">
            <path d="M8.52814 5.11833C8.8533 4.94431 9.24784 4.96338 9.5547 5.16795L18.5547 11.168C18.8329 11.3534 19 11.6656 19 12C19 12.3344 18.8329 12.6466 18.5547 12.8321L9.5547 18.8321C9.24784 19.0366 8.8533 19.0557 8.52814 18.8817C8.20298 18.7077 8 18.3688 8 18V6C8 5.63121 8.20298 5.29235 8.52814 5.11833ZM10 7.86852V16.1315L16.1972 12L10 7.86852Z"></path>
        </symbol>
    </defs>
</svg>
