<?xml version="1.0" standalone="no"?>
<!DOCTYPE svg PUBLIC "-//W3C//DTD SVG 20010904//EN"
 "http://www.w3.org/TR/2001/REC-SVG-20010904/DTD/svg10.dtd">
<svg version="1.0" xmlns="http://www.w3.org/2000/svg"
 width="256.000000pt" height="256.000000pt" viewBox="0 0 256.000000 256.000000"
 preserveAspectRatio="xMidYMid meet">

<g transform="translate(0.000000,256.000000) scale(0.100000,-0.100000)"
fill="#000000" stroke="none">
<path d="M548 2080 c-121 -31 -247 -139 -288 -247 -79 -205 8 -422 208 -520
52 -26 67 -28 167 -28 102 0 115 2 175 31 84 39 155 111 194 194 41 88 49 217
17 300 -47 124 -127 208 -238 250 -65 24 -179 34 -235 20z"/>
<path d="M1805 2067 c-156 -52 -259 -170 -284 -325 -28 -175 62 -343 226 -424
63 -31 74 -33 168 -33 136 1 194 24 285 114 91 90 114 148 115 286 0 92 -3
105 -33 166 -41 86 -128 168 -209 200 -71 27 -209 35 -268 16z"/>
<path d="M299 1223 c-39 -37 -81 -85 -94 -107 -53 -91 -73 -281 -36 -343 46
-75 245 -133 462 -133 215 0 376 39 450 109 l39 38 0 84 c0 168 -42 265 -154
364 l-62 54 -59 -30 c-124 -60 -285 -60 -414 1 l-61 29 -71 -66z"/>
<path d="M1568 1208 c-89 -87 -113 -140 -128 -283 -9 -76 -8 -100 3 -128 43
-102 263 -166 531 -154 204 9 364 61 408 132 36 60 15 251 -37 341 -24 41
-148 164 -165 164 -5 0 -24 -9 -42 -19 -103 -60 -279 -68 -398 -17 -36 15 -72
30 -81 33 -11 3 -42 -20 -91 -69z"/>
</g>
</svg>
