<?xml version="1.0" standalone="no"?>
<!DOCTYPE svg PUBLIC "-//W3C//DTD SVG 20010904//EN"
 "http://www.w3.org/TR/2001/REC-SVG-20010904/DTD/svg10.dtd">
<svg version="1.0" xmlns="http://www.w3.org/2000/svg"
 width="256.000000pt" height="256.000000pt" viewBox="0 0 256.000000 256.000000"
 preserveAspectRatio="xMidYMid meet">

<g transform="translate(0.000000,256.000000) scale(0.100000,-0.100000)"
fill="#000000" stroke="none">
<path d="M577 2230 c-112 -19 -204 -78 -265 -170 -83 -124 -93 -264 -27 -396
42 -86 102 -144 193 -187 61 -29 76 -32 162 -32 86 0 101 3 162 32 91 43 151
101 193 187 66 132 56 272 -27 396 -84 126 -242 195 -391 170z"/>
<path d="M1826 2230 c-63 -16 -153 -70 -197 -117 -235 -256 -56 -665 291 -665
184 0 337 117 385 296 65 238 -114 480 -363 492 -42 2 -94 -1 -116 -6z"/>
<path d="M1186 1590 c-63 -16 -153 -70 -197 -117 -235 -256 -56 -665 291 -665
184 0 337 117 385 296 65 238 -114 480 -363 492 -42 2 -94 -1 -116 -6z"/>
<path d="M2156 1425 c-10 -8 -49 -24 -85 -36 -87 -29 -212 -30 -294 -2 -52 18
-58 19 -54 4 64 -201 41 -354 -74 -493 -22 -26 -36 -49 -31 -52 4 -2 48 -12
97 -21 125 -24 378 -16 484 14 95 28 142 53 176 93 27 32 28 35 22 133 -8 157
-46 236 -158 332 -56 48 -57 48 -83 28z"/>
<path d="M297 1367 c-76 -73 -110 -137 -126 -237 -23 -141 -11 -194 54 -239
86 -58 306 -98 479 -87 92 6 232 29 244 40 2 3 -14 26 -36 53 -103 122 -140
309 -89 453 9 24 15 46 13 47 -2 2 -23 -4 -47 -14 -31 -12 -75 -17 -149 -17
-94 0 -112 3 -170 28 -102 44 -98 45 -173 -27z"/>
<path d="M947 739 c-101 -91 -147 -205 -147 -366 0 -44 5 -58 30 -86 67 -77
229 -120 450 -120 221 0 383 43 450 120 25 28 30 42 30 86 0 161 -46 275 -147
366 l-65 59 -62 -29 c-132 -62 -280 -62 -412 0 l-62 29 -65 -59z"/>
</g>
</svg>
