<?xml version="1.0" standalone="no"?>
<!DOCTYPE svg PUBLIC "-//W3C//DTD SVG 20010904//EN"
 "http://www.w3.org/TR/2001/REC-SVG-20010904/DTD/svg10.dtd">
<svg version="1.0" xmlns="http://www.w3.org/2000/svg"
 width="512.000000pt" height="512.000000pt" viewBox="0 0 512.000000 512.000000"
 preserveAspectRatio="xMidYMid meet">

<g transform="translate(0.000000,512.000000) scale(0.100000,-0.100000)"
fill="#000000" stroke="none">
<path d="M2395 4789 c-219 -30 -446 -125 -621 -259 -84 -66 -220 -213 -278
-302 -149 -230 -210 -436 -210 -708 0 -357 120 -649 373 -901 252 -253 544
-373 901 -373 357 0 649 120 901 373 253 252 373 544 373 901 0 357 -120 649
-373 901 -188 189 -395 300 -656 354 -97 20 -314 27 -410 14z"/>
<path d="M1600 2160 c-305 -229 -416 -344 -505 -525 -86 -174 -127 -382 -129
-655 -1 -182 5 -205 75 -285 218 -247 1041 -415 1794 -365 506 34 923 137
1143 283 78 52 121 96 154 160 21 39 23 54 22 207 -2 272 -42 480 -128 655
-88 180 -199 294 -502 521 l-192 143 -103 -53 c-125 -65 -245 -108 -382 -138
-147 -32 -427 -32 -574 0 -138 30 -257 73 -382 138 -58 30 -105 54 -105 54 -1
-1 -84 -64 -186 -140z"/>
</g>
</svg>
