<?xml version="1.0" standalone="no"?>
<!DOCTYPE svg PUBLIC "-//W3C//DTD SVG 20010904//EN"
 "http://www.w3.org/TR/2001/REC-SVG-20010904/DTD/svg10.dtd">
<svg version="1.0" xmlns="http://www.w3.org/2000/svg"
 width="256.000000pt" height="256.000000pt" viewBox="0 0 256.000000 256.000000"
 preserveAspectRatio="xMidYMid meet">

<g transform="translate(0.000000,256.000000) scale(0.100000,-0.100000)"
fill="#000000" stroke="none">
<path d="M1183 2382 c-109 -39 -178 -112 -210 -221 -29 -102 4 -228 82 -306
122 -121 328 -121 450 0 121 122 121 328 0 450 -82 81 -219 114 -322 77z"/>
<path d="M463 1742 c-109 -39 -178 -112 -210 -221 -29 -102 4 -228 82 -306
122 -121 328 -121 450 0 121 122 121 328 0 450 -82 81 -219 114 -322 77z"/>
<path d="M1903 1742 c-109 -39 -178 -112 -210 -221 -29 -102 4 -228 82 -306
122 -121 328 -121 450 0 121 122 121 328 0 450 -82 81 -219 114 -322 77z"/>
<path d="M1003 1710 c-81 -64 -86 -75 -62 -151 15 -48 20 -85 17 -144 l-3 -80
55 -18 c49 -16 58 -17 80 -4 43 25 131 47 190 47 58 0 147 -22 190 -46 22 -13
31 -13 80 3 l55 18 -3 80 c-3 59 2 96 17 144 24 76 19 87 -62 151 l-50 40 -31
-19 c-47 -29 -133 -51 -196 -51 -63 0 -149 22 -196 51 l-31 19 -50 -40z"/>
<path d="M1183 1262 c-109 -39 -178 -112 -210 -221 -29 -102 4 -228 82 -306
122 -121 328 -121 450 0 121 122 121 328 0 450 -82 81 -219 114 -322 77z"/>
<path d="M277 1065 c-70 -57 -104 -123 -113 -222 -6 -58 -4 -77 10 -97 32 -49
119 -80 279 -98 168 -19 378 11 461 66 27 17 34 40 16 51 -19 12 -50 138 -50
205 l0 67 -46 37 -47 36 -31 -19 c-107 -66 -285 -66 -392 0 l-32 19 -55 -45z"/>
<path d="M1726 1074 l-46 -37 0 -67 c0 -67 -31 -193 -50 -205 -33 -21 8 -57
97 -86 172 -57 477 -44 612 25 53 28 65 57 57 139 -9 99 -43 165 -113 222
l-55 45 -32 -19 c-107 -66 -285 -66 -392 0 l-31 19 -47 -36z"/>
<path d="M997 585 c-70 -57 -104 -123 -113 -222 -8 -82 4 -111 57 -139 192
-99 650 -73 725 42 14 20 16 39 10 97 -9 99 -43 165 -113 222 l-55 45 -32 -19
c-107 -66 -285 -66 -392 0 l-32 19 -55 -45z"/>
</g>
</svg>
